<mxfile host="app.diagrams.net" agent="Mozilla/5.0 (Windows NT 10.0; Win64; x64) AppleWebKit/537.36 (KHTML, like Gecko) Chrome/131.0.0.0 Safari/537.36" version="25.0.3">
  <diagram name="第 1 页" id="u1HOmUdVYOKx2OxC-LrX">
    <mxGraphModel dx="1871" dy="1114" grid="1" gridSize="10" guides="1" tooltips="1" connect="1" arrows="1" fold="1" page="1" pageScale="1" pageWidth="827" pageHeight="1169" math="0" shadow="0">
      <root>
        <mxCell id="0" />
        <mxCell id="1" parent="0" />
        <mxCell id="yvhNtZMfPCglKMaMRUqx-1" value="開單舉報子系統" style="text;html=1;align=center;verticalAlign=middle;resizable=0;points=[];autosize=1;strokeColor=none;fillColor=none;" parent="1" vertex="1">
          <mxGeometry x="-25" y="358" width="110" height="30" as="geometry" />
        </mxCell>
        <mxCell id="CWM3FjC5GcHLOuotHaUT-3" style="edgeStyle=orthogonalEdgeStyle;rounded=0;orthogonalLoop=1;jettySize=auto;html=1;" parent="1" source="CWM3FjC5GcHLOuotHaUT-1" target="CWM3FjC5GcHLOuotHaUT-4" edge="1">
          <mxGeometry relative="1" as="geometry">
            <mxPoint x="60" y="580" as="targetPoint" />
          </mxGeometry>
        </mxCell>
        <mxCell id="CWM3FjC5GcHLOuotHaUT-6" style="edgeStyle=orthogonalEdgeStyle;rounded=0;orthogonalLoop=1;jettySize=auto;html=1;" parent="1" source="CWM3FjC5GcHLOuotHaUT-1" target="CWM3FjC5GcHLOuotHaUT-7" edge="1">
          <mxGeometry relative="1" as="geometry">
            <mxPoint x="300" y="450" as="targetPoint" />
          </mxGeometry>
        </mxCell>
        <mxCell id="CWM3FjC5GcHLOuotHaUT-1" value="全國舉發案件處理檔案" style="rounded=0;whiteSpace=wrap;html=1;" parent="1" vertex="1">
          <mxGeometry x="-70" y="420" width="260" height="60" as="geometry" />
        </mxCell>
        <mxCell id="CWM3FjC5GcHLOuotHaUT-12" style="edgeStyle=orthogonalEdgeStyle;rounded=0;orthogonalLoop=1;jettySize=auto;html=1;entryX=0.5;entryY=0;entryDx=0;entryDy=0;" parent="1" source="CWM3FjC5GcHLOuotHaUT-4" target="CWM3FjC5GcHLOuotHaUT-11" edge="1">
          <mxGeometry relative="1" as="geometry" />
        </mxCell>
        <mxCell id="CWM3FjC5GcHLOuotHaUT-4" value="舉發" style="rounded=1;whiteSpace=wrap;html=1;" parent="1" vertex="1">
          <mxGeometry y="550" width="120" height="60" as="geometry" />
        </mxCell>
        <mxCell id="CWM3FjC5GcHLOuotHaUT-8" style="edgeStyle=orthogonalEdgeStyle;rounded=0;orthogonalLoop=1;jettySize=auto;html=1;entryX=0;entryY=0.5;entryDx=0;entryDy=0;" parent="1" source="CWM3FjC5GcHLOuotHaUT-7" target="CWM3FjC5GcHLOuotHaUT-16" edge="1">
          <mxGeometry relative="1" as="geometry">
            <mxPoint x="490" y="450" as="targetPoint" />
          </mxGeometry>
        </mxCell>
        <mxCell id="CWM3FjC5GcHLOuotHaUT-7" value="罰單" style="rounded=1;whiteSpace=wrap;html=1;" parent="1" vertex="1">
          <mxGeometry x="280" y="420" width="120" height="60" as="geometry" />
        </mxCell>
        <mxCell id="CWM3FjC5GcHLOuotHaUT-11" value="管理員" style="whiteSpace=wrap;html=1;" parent="1" vertex="1">
          <mxGeometry x="-40" y="700" width="200" height="60" as="geometry" />
        </mxCell>
        <mxCell id="CWM3FjC5GcHLOuotHaUT-15" style="edgeStyle=orthogonalEdgeStyle;rounded=0;orthogonalLoop=1;jettySize=auto;html=1;entryX=0.5;entryY=1;entryDx=0;entryDy=0;" parent="1" source="CWM3FjC5GcHLOuotHaUT-13" target="CWM3FjC5GcHLOuotHaUT-11" edge="1">
          <mxGeometry relative="1" as="geometry" />
        </mxCell>
        <mxCell id="CWM3FjC5GcHLOuotHaUT-13" value="車籍資料子系統" style="shape=internalStorage;whiteSpace=wrap;html=1;backgroundOutline=1;" parent="1" vertex="1">
          <mxGeometry x="-15" y="830" width="150" height="80" as="geometry" />
        </mxCell>
        <mxCell id="CWM3FjC5GcHLOuotHaUT-16" value="違規人民" style="rounded=0;whiteSpace=wrap;html=1;" parent="1" vertex="1">
          <mxGeometry x="450" y="420" width="120" height="60" as="geometry" />
        </mxCell>
      </root>
    </mxGraphModel>
  </diagram>
</mxfile>
